<svg version="1.1" viewBox="0 0 640 400" xmlns="http://www.w3.org/2000/svg" xmlns:xlink="http://www.w3.org/1999/xlink" xmlns:svgjs="http://svgjs.dev/svgjs" matcher="0.33400476433290627"><g viewBox="0 0 640 400" matcher="0.33400476433290627"><g matcher="0.33400476433290627"><g matcher="0.33400476433290627"><g matcher="0.33400476433290627"><svg viewBox="0 0 640 400" data-background-color="#ffffff" preserveAspectRatio="xMidYMid meet" height="400" width="640" xmlns="http://www.w3.org/2000/svg" xmlns:xlink="http://www.w3.org/1999/xlink"><rect width="640" height="400" x="0" y="0" opacity="1" fill="#ffffff" data-fill-palette-color="background" id="background"></rect><g id="tight-bounds" transform="matrix(1,0,0,1,122.24000000000001,130.77522802654852)"><svg viewBox="0 0 395.52 138.449543946903" height="138.449543946903" width="395.52"><g><svg viewBox="0 0 395.52 138.449543946903" height="138.449543946903" width="395.52"><g transform="matrix(1,0,0,1,0,71.44796516953282)"><svg viewBox="0 0 395.52 67.00157877737017" height="67.00157877737017" width="395.52"><g id="textblocktransform"><svg viewBox="0 0 395.52 67.00157877737017" height="67.00157877737017" width="395.52" id="textblock"><g><svg viewBox="0 0 395.52 67.00157877737017" height="67.00157877737017" width="395.52"><g transform="matrix(1,0,0,1,0,0)"><svg width="395.52" viewBox="2.7377099990844727 -13.455459594726562 218.82470703125 37.069183349609375" height="67.00157877737017" data-palette-color="#ff748d"><path d="M6.993 13.071v0c-1.88-0.39-3.029-1.155-3.446-2.297-0.424-1.143-0.44-2.655-0.05-4.534v0l3.064-14.786 1.053 1.668-4.876-1.01 0.221-1.711c0.394-0.061 0.874-0.129 1.441-0.202 0.573-0.072 1.154-0.149 1.744-0.231 0.59-0.089 1.063-0.154 1.419-0.196v0l-1.718 1.094c0.179-0.14 0.43-0.401 0.755-0.783 0.332-0.387 0.679-0.829 1.041-1.326 0.368-0.496 0.71-0.946 1.025-1.35 0.32-0.397 0.543-0.684 0.669-0.862v0l1.483 0.481-4.154 20.044c-0.198 0.953-0.185 1.732 0.037 2.336 0.229 0.606 0.819 1.007 1.772 1.204v0c0.62 0.129 1.291 0.111 2.013-0.052 0.72-0.157 1.397-0.418 2.031-0.784v0l0.761 2.047c-1.181 0.606-2.3 1.011-3.357 1.214-1.051 0.211-2.027 0.223-2.928 0.036zM15.497-5.244l-6.737-1.396 0.454-2.194 6.943 1.439zM30.878 16.472l-2.592-0.383-3.458-15.461c-0.202-0.96-0.449-1.889-0.741-2.788-0.285-0.898-0.591-1.819-0.916-2.763v0l1.753 1.957-2.962-1.095 0.535-2.185 9.151 1.352-0.193 2.195-4.959-0.298 1.232-1.294c0.105 0.885 0.211 1.79 0.316 2.716 0.112 0.933 0.244 1.771 0.397 2.515v0l2.521 12.634-0.945-0.1 8.605-17.338 1.494 0.22 3.647 19.108-0.985-0.105 5.877-11.525c0.277-0.505 0.531-1.037 0.762-1.596 0.225-0.567 0.439-1.125 0.641-1.674 0.196-0.551 0.385-1.058 0.569-1.523v0l0.836 1.731-5.055-1.434 0.514-1.976 8.716 1.287-0.193 2.195-3.422-0.03 2.168-1.196c-0.653 1.09-1.279 2.089-1.878 2.998-0.594 0.916-1.171 1.882-1.733 2.898v0l-6.891 12.851-2.642-0.391-3.295-16.832 0.945 0.099zM68.268 21.567v0c-2.145-0.192-3.902-0.824-5.272-1.897-1.377-1.073-2.353-2.469-2.929-4.187-0.582-1.725-0.78-3.63-0.594-5.716v0c0.189-2.112 0.685-3.965 1.491-5.559 0.806-1.601 1.935-2.819 3.388-3.653 1.46-0.833 3.232-1.157 5.318-0.971v0c1.999 0.179 3.545 0.735 4.639 1.67 1.095 0.928 1.842 2.159 2.241 3.694 0.398 1.535 0.511 3.272 0.337 5.21v0l-0.81 1.314-13.884-1.241 0.172-1.932 12.465 0.17-1.499 1.372c0.033-0.372 0.072-0.733 0.117-1.084 0.045-0.357 0.087-0.752 0.126-1.184v0c0.135-1.514-0.134-2.847-0.807-3.997-0.673-1.158-1.81-1.808-3.41-1.951v0c-1.056-0.094-1.966 0.092-2.731 0.559-0.758 0.468-1.376 1.125-1.853 1.973-0.484 0.847-0.858 1.771-1.121 2.771-0.257 1.001-0.43 2-0.518 2.996v0c-0.084 0.943-0.057 1.916 0.08 2.918 0.144 1.01 0.42 1.965 0.829 2.866 0.408 0.9 0.951 1.638 1.629 2.213 0.684 0.583 1.541 0.921 2.57 1.013v0c1.341 0.12 2.638 0.025 3.891-0.285 1.252-0.303 2.207-0.613 2.864-0.929v0l0.947 1.982c0.094-0.079-0.013-0.008-0.32 0.213-0.307 0.214-0.798 0.471-1.474 0.772-0.676 0.301-1.505 0.552-2.487 0.751-0.982 0.2-2.113 0.243-3.395 0.129zM93.786 23.075v0c-2.152-0.088-3.937-0.635-5.358-1.64-1.427-1.006-2.469-2.353-3.128-4.041-0.665-1.695-0.954-3.589-0.869-5.68v0c0.086-2.118 0.493-3.993 1.221-5.625 0.727-1.638 1.797-2.909 3.208-3.813 1.418-0.903 3.173-1.312 5.265-1.226v0c2.005 0.082 3.577 0.563 4.715 1.444 1.139 0.874 1.944 2.068 2.416 3.581 0.472 1.514 0.668 3.243 0.588 5.189v0l-0.745 1.35-13.929-0.568 0.079-1.939 12.458-0.432-1.43 1.443c0.015-0.373 0.037-0.736 0.065-1.088 0.028-0.359 0.051-0.755 0.068-1.189v0c0.062-1.519-0.271-2.837-0.999-3.954-0.728-1.124-1.895-1.719-3.5-1.784v0c-1.059-0.043-1.959 0.187-2.701 0.691-0.735 0.504-1.32 1.19-1.755 2.06-0.443 0.869-0.771 1.81-0.986 2.822-0.208 1.012-0.333 2.018-0.374 3.017v0c-0.039 0.946 0.035 1.916 0.222 2.911 0.193 1.002 0.514 1.943 0.965 2.822 0.451 0.879 1.029 1.59 1.735 2.133 0.712 0.549 1.583 0.845 2.616 0.887v0c1.346 0.055 2.636-0.103 3.872-0.472 1.236-0.363 2.174-0.719 2.816-1.066v0l1.042 1.934c0.09-0.083-0.013-0.007-0.309 0.228-0.296 0.228-0.775 0.509-1.436 0.842-0.661 0.333-1.477 0.624-2.448 0.871-0.971 0.247-2.099 0.345-3.384 0.292zM116.986 23.614v0c-1.92 0.009-3.202-0.502-3.847-1.533-0.651-1.03-0.982-2.505-0.991-4.425v0l-0.07-15.1 1.377 1.414-4.98 0.023-0.138-1.719c0.373-0.142 0.829-0.307 1.368-0.497 0.546-0.189 1.098-0.385 1.657-0.588 0.559-0.209 1.008-0.371 1.348-0.486v0l-1.454 1.427c0.146-0.174 0.338-0.482 0.576-0.923 0.245-0.448 0.492-0.952 0.743-1.513 0.257-0.561 0.498-1.072 0.723-1.534 0.231-0.454 0.39-0.782 0.475-0.982v0l1.551 0.163 0.095 20.47c0.005 0.973 0.178 1.733 0.521 2.277 0.349 0.545 1.01 0.815 1.983 0.811v0c0.633-0.003 1.286-0.159 1.958-0.469 0.672-0.303 1.28-0.699 1.825-1.188v0l1.168 1.844c-1.029 0.838-2.04 1.466-3.031 1.884-0.985 0.425-1.937 0.639-2.857 0.644zM121.505 3.932l-6.88 0.032-0.011-2.24 7.09-0.033zM142.209 22.284v0l-0.317-2.056 4.11-1.283-0.693 1.707c-0.345-0.61-0.723-1.264-1.133-1.964-0.41-0.693-0.796-1.261-1.159-1.702v0l-3.803-4.41-0.421-0.589-4.216-4.859c-0.307-0.385-0.724-0.844-1.252-1.378-0.528-0.533-1.066-1.066-1.615-1.599-0.542-0.533-1.023-1.002-1.444-1.407v0l2.56 1.29-3.72-0.289 0.102-2.288 8.848-0.457 0.245 2.231-4.06 0.68 0.616-1.454c0.34 0.503 0.651 0.971 0.934 1.404 0.282 0.426 0.538 0.793 0.767 1.102 0.229 0.302 0.405 0.537 0.527 0.703v0l3.396 3.911 0.691 0.955 4.305 5.035c0.246 0.248 0.671 0.656 1.275 1.226 0.604 0.57 1.272 1.173 2.006 1.809 0.734 0.636 1.387 1.2 1.959 1.691v0l-2.678-1.073 4.137 0.047-0.142 2.29-5.752 0.297c-0.459 0.024-1.091 0.076-1.894 0.158-0.797 0.088-1.523 0.179-2.179 0.272zM129.885 22.921v0l-0.326-2.056 4.109-1.284-2.409 1.626c0.568-0.63 1.152-1.291 1.75-1.982 0.592-0.691 1.127-1.323 1.604-1.896 0.471-0.565 0.774-0.968 0.909-1.208v0l3.655-5.826 0.594-0.121 2.765-4.839c0.16-0.262 0.34-0.592 0.539-0.989 0.193-0.397 0.379-0.811 0.557-1.24 0.178-0.423 0.329-0.798 0.453-1.125v0l0.901 1.555-4.378-0.635 0.105-2.038 8.588-0.443 0.245 2.23-4.135 0.774 2.421-1.587c-0.701 0.897-1.404 1.771-2.107 2.623-0.703 0.857-1.211 1.568-1.522 2.131v0l-3.05 5.324-0.465 0.104-3.304 5.257c-0.291 0.442-0.611 1.026-0.961 1.752-0.35 0.719-0.668 1.416-0.953 2.092v0l-0.844-1.418 4.318 0.248-0.142 2.29-4.854 0.25c-0.459 0.024-1.088 0.076-1.884 0.158-0.797 0.088-1.523 0.179-2.179 0.272zM169.094 10.267l-9.209 0.874-0.327-2.6 9.497-0.902zM189.168 17.784v0c-2.152 0.302-4.013 0.093-5.581-0.63-1.562-0.723-2.812-1.857-3.75-3.401-0.944-1.544-1.566-3.382-1.866-5.514v0c-0.303-2.159-0.206-4.105 0.291-5.837 0.49-1.732 1.397-3.162 2.72-4.291 1.316-1.127 3.053-1.843 5.212-2.146v0c1.248-0.175 2.36-0.187 3.337-0.034 0.977 0.152 2.138 0.366 3.483 0.641v0l0.287 5.13-2.365 0.201-0.203-1.445c-0.032-0.231-0.165-0.596-0.396-1.096-0.226-0.507-0.444-0.978-0.653-1.413v0l1.519 1.18c-0.828-0.288-1.64-0.53-2.435-0.728-0.788-0.192-1.551-0.236-2.291-0.133v0c-1.452 0.204-2.55 0.799-3.294 1.786-0.742 0.993-1.22 2.168-1.433 3.524-0.212 1.363-0.221 2.741-0.025 4.133v0c0.196 1.393 0.574 2.693 1.133 3.901 0.561 1.214 1.323 2.157 2.286 2.829 0.963 0.673 2.167 0.907 3.613 0.704v0c1.05-0.147 2.046-0.432 2.991-0.854 0.937-0.421 1.884-0.945 2.839-1.57v0l1.424 1.799c-1.084 0.96-2.181 1.7-3.293 2.22-1.112 0.52-2.295 0.868-3.55 1.044zM213.74 13.553v0c-2.141 0.41-4.018 0.287-5.629-0.369-1.618-0.654-2.939-1.722-3.963-3.203-1.03-1.48-1.747-3.277-2.151-5.392v0c-0.41-2.141-0.409-4.089 0.002-5.844 0.404-1.754 1.238-3.233 2.501-4.439 1.256-1.204 2.955-2.011 5.096-2.421v0c3.208-0.614 5.798-0.081 7.769 1.599 1.971 1.68 3.268 4.153 3.893 7.421v0c0.405 2.115 0.406 4.056 0.004 5.823-0.408 1.768-1.235 3.247-2.481 4.435-1.246 1.188-2.926 1.985-5.041 2.39zM213.304 11.274v0c1.519-0.291 2.637-0.942 3.353-1.955 0.709-1.011 1.116-2.206 1.218-3.582 0.097-1.376 0.013-2.755-0.251-4.137v0c-0.269-1.408-0.703-2.733-1.3-3.976-0.604-1.242-1.422-2.202-2.455-2.88-1.039-0.677-2.318-0.87-3.837-0.58v0c-1.519 0.291-2.638 0.936-3.357 1.935-0.712 0.998-1.132 2.188-1.261 3.571-0.129 1.382-0.057 2.79 0.217 4.224v0c0.269 1.408 0.719 2.73 1.35 3.967 0.63 1.237 1.46 2.188 2.49 2.853 1.036 0.664 2.314 0.85 3.833 0.56z" opacity="1" transform="matrix(1,0,0,1,0,0)" fill="#ff748d" class="wordmark-text-0" data-fill-palette-color="primary" id="text-0"></path></svg></g></svg></g></svg></g></svg></g><g transform="matrix(1,0,0,1,151.89215980141608,0)"><svg viewBox="0 0 91.73568039716781 67.00157877737017" height="67.00157877737017" width="91.73568039716781"><g><svg xmlns="http://www.w3.org/2000/svg" xmlns:xlink="http://www.w3.org/1999/xlink" version="1.1" x="0" y="0" viewBox="0 0.0003173351287841797 100.27388000488281 73.23767852783203" enable-background="new 0 0 100.273 73.238" xml:space="preserve" height="67.00157877737017" width="91.73568039716781" class="icon-icon-0" data-fill-palette-color="accent" id="icon-0"><path d="M99.821 23.403L70.64 45.019C70.035 45.466 69.541 45.218 69.54 44.466L69.525 32.353C61.281 32.291 32.626 37.847 24.831 48.566 24.831 25.763 58.742 11.731 69.507 11.555L69.494 0.777C69.492 0.026 69.987-0.225 70.593 0.222L99.82 21.78C100.424 22.227 100.426 22.957 99.821 23.403" fill="#edbbba" data-fill-palette-color="accent"></path><path d="M89.396 48.593L89.152 63.238H10V16.238H27.56L40.813 6.238H9.629C4.471 6.238 0 10.86 0 16.019V63.573C0 68.732 4.471 73.238 9.629 73.238H89.147C94.305 73.238 99.001 68.732 99.001 63.573V40.965z" fill="#edbbba" data-fill-palette-color="accent"></path></svg></g></svg></g><g></g></svg></g><defs></defs></svg><rect width="395.52" height="138.449543946903" fill="none" stroke="none" visibility="hidden"></rect></g></svg></g></g></g></g><rect width="407.5198140900197" height="79.00145624388458" x="117.24055161448135" y="197.22402076198625" rx="2.5" ry="2.5" fill="transparent" class="logo-element-hover-target"></rect><rect width="103.7355675146772" height="79.00159001956945" x="269.1322162426614" y="125.77521098336595" rx="2.5" ry="2.5" fill="transparent" class="logo-element-hover-target"></rect></svg>